<svg width="12" height="12" viewBox="0 0 12 12" fill="none" xmlns="http://www.w3.org/2000/svg">
<g id="media/broadcast-line">
<g id="Group">
<path id="Vector" d="M2.4645 2.5L3.1715 3.207C2.79952 3.57804 2.50453 4.01893 2.30348 4.50434C2.10244 4.98975 1.9993 5.5101 2 6.0355C2 7.1405 2.4475 8.1405 3.1715 8.864L2.465 9.5705C1.99999 9.10682 1.63118 8.55583 1.37977 7.94918C1.12836 7.34253 0.999298 6.69218 1 6.0355C0.999167 5.37877 1.12812 4.72835 1.37944 4.12161C1.63077 3.51487 1.99952 2.96378 2.4645 2.5ZM9.5355 2.5C10.0005 2.96378 10.3692 3.51487 10.6206 4.12161C10.8719 4.72835 11.0008 5.37877 11 6.0355C11.0008 6.69223 10.8719 7.34265 10.6206 7.94939C10.3692 8.55613 10.0005 9.10722 9.5355 9.571L8.8285 8.864C9.20049 8.49296 9.49548 8.05207 9.69652 7.56666C9.89757 7.08125 10.0007 6.5609 10 6.0355C10 4.9305 9.5525 3.9305 8.8285 3.207L9.535 2.5005L9.5355 2.5ZM3.8785 3.914L4.586 4.6215C4.39999 4.80696 4.25245 5.02736 4.15189 5.27002C4.05132 5.51268 3.99971 5.77282 4 6.0355C4 6.588 4.224 7.088 4.586 7.4495L3.8785 8.157C3.59952 7.8787 3.37829 7.54801 3.22752 7.18393C3.07676 6.81985 2.99944 6.42956 3 6.0355C3 5.207 3.336 4.457 3.8785 3.914ZM8.1215 3.914C8.40049 4.1923 8.62172 4.52299 8.77249 4.88707C8.92325 5.25115 9.00057 5.64144 9 6.0355C9.00057 6.42956 8.92325 6.81985 8.77249 7.18393C8.62172 7.54801 8.40049 7.8787 8.1215 8.157L7.414 7.4495C7.60002 7.26404 7.74755 7.04364 7.84812 6.80098C7.94869 6.55832 8.0003 6.29818 8 6.0355C8.0003 5.77282 7.94869 5.51268 7.84812 5.27002C7.74755 5.02736 7.60002 4.80696 7.414 4.6215L8.1215 3.914ZM6 7.0355C5.73479 7.0355 5.48043 6.93014 5.2929 6.74261C5.10536 6.55507 5 6.30072 5 6.0355C5 5.77028 5.10536 5.51593 5.2929 5.32839C5.48043 5.14086 5.73479 5.0355 6 5.0355C6.26522 5.0355 6.51957 5.14086 6.70711 5.32839C6.89465 5.51593 7 5.77028 7 6.0355C7 6.30072 6.89465 6.55507 6.70711 6.74261C6.51957 6.93014 6.26522 7.0355 6 7.0355Z" fill="#F04438"/>
</g>
</g>
</svg>
