<svg width="56" height="56" viewBox="0 0 56 56" fill="none" xmlns="http://www.w3.org/2000/svg">
<path d="M35.8709 44.0779H35.0801V42.8966H35.8709C36.0049 42.8965 36.1333 42.8432 36.228 42.7485C36.3228 42.6537 36.3761 42.5253 36.3762 42.3914V35.9375H37.5575V42.3914C37.5569 42.8385 37.3791 43.2672 37.0629 43.5833C36.7467 43.8995 36.3181 44.0774 35.8709 44.0779Z" fill="#D4E1F4"/>
<path d="M20.9207 44.0779H20.1299C19.6828 44.0774 19.2541 43.8995 18.9379 43.5833C18.6217 43.2672 18.4439 42.8385 18.4434 42.3914V35.9375H19.6246V42.3914C19.6248 42.5253 19.6781 42.6537 19.7728 42.7485C19.8675 42.8432 19.9959 42.8965 20.1299 42.8966H20.9207V44.0779Z" fill="#D4E1F4"/>
<path d="M40.6404 4.14062C41.4087 4.14689 42.1431 4.45812 42.682 5.00585C43.2208 5.55357 43.52 6.29293 43.5138 7.06127C43.5201 7.44254 43.4504 7.82126 43.3089 8.17535C43.1673 8.52944 42.9567 8.85181 42.6893 9.12367C42.4219 9.39553 42.1031 9.61145 41.7514 9.75883C41.3997 9.90622 41.0222 9.98212 40.6409 9.98212C40.2595 9.98212 39.882 9.90622 39.5303 9.75883C39.1786 9.61145 38.8598 9.39553 38.5924 9.12367C38.325 8.85181 38.1144 8.52944 37.9728 8.17535C37.8313 7.82126 37.7617 7.44254 37.768 7.06127C37.7648 6.68088 37.8365 6.30358 37.9791 5.95093C38.1218 5.59828 38.3325 5.27718 38.5992 5.00596C38.8659 4.73475 39.1835 4.51874 39.5337 4.37026C39.8839 4.22178 40.26 4.14375 40.6404 4.14062Z" fill="#C79A83"/>
<path d="M28.0013 9.98191C29.5877 9.98191 30.8737 8.67429 30.8737 7.06127C30.8737 5.44824 29.5877 4.14062 28.0013 4.14062C26.4149 4.14062 25.1289 5.44824 25.1289 7.06127C25.1289 8.67429 26.4149 9.98191 28.0013 9.98191Z" fill="#EFC597"/>
<path d="M15.3601 4.14062C15.7405 4.14375 16.1165 4.22178 16.4668 4.37026C16.817 4.51874 17.1346 4.73475 17.4013 5.00596C17.668 5.27718 17.8787 5.59828 18.0213 5.95093C18.164 6.30358 18.2357 6.68088 18.2325 7.06127C18.2388 7.44254 18.1692 7.82126 18.0276 8.17535C17.8861 8.52944 17.6755 8.85181 17.4081 9.12367C17.1407 9.39553 16.8219 9.61145 16.4702 9.75883C16.1185 9.90622 15.7409 9.98212 15.3596 9.98212C14.9783 9.98212 14.6008 9.90622 14.2491 9.75883C13.8974 9.61145 13.5785 9.39553 13.3111 9.12367C13.0437 8.85181 12.8331 8.52944 12.6916 8.17535C12.5501 7.82126 12.4804 7.44254 12.4867 7.06127C12.4805 6.29293 12.7797 5.55357 13.3185 5.00585C13.8574 4.45812 14.5918 4.14689 15.3601 4.14062Z" fill="#FFD8B7"/>
<path d="M48.0655 18.6484H7.93452L3.75781 28.5906H52.2422L48.0655 18.6484Z" fill="#D4E1F4"/>
<path d="M3.78516 28.5859H52.2164V30.7516H3.78516V28.5859Z" fill="#B6C9E0"/>
<path d="M45.6699 30.7891H48.5827V43.1942H45.6699V30.7891Z" fill="#5D6B84"/>
<path d="M7.50391 30.7891H10.4167V43.1942H7.50391V30.7891Z" fill="#5D6B84"/>
<path d="M34.035 41.9375H22.0286C21.7259 41.9386 21.436 42.0594 21.2221 42.2735C21.0081 42.4876 20.8876 42.7777 20.8867 43.0804V43.8866C20.8876 44.1892 21.0081 44.4793 21.2221 44.6934C21.436 44.9075 21.7259 45.0283 22.0286 45.0294H34.035C34.3378 45.0284 34.6279 44.9076 34.842 44.6935C35.0561 44.4794 35.1768 44.1893 35.1779 43.8866V43.0804C35.1768 42.7776 35.0561 42.4875 34.842 42.2734C34.6279 42.0593 34.3378 41.9386 34.035 41.9375Z" fill="#FB6771"/>
<path d="M35.1699 28.5815C35.1261 28.3088 34.9869 28.0606 34.777 27.8811C34.5671 27.7016 34.3003 27.6025 34.0241 27.6016H22.0443C21.77 27.6028 21.5052 27.7024 21.298 27.8822C21.0909 28.062 20.955 28.3101 20.9152 28.5815L20.9142 37.5792C20.9119 37.729 20.9395 37.8777 20.9952 38.0167C21.051 38.1557 21.1339 38.2823 21.2391 38.3889C21.3443 38.4956 21.4697 38.5802 21.6079 38.6379C21.7461 38.6956 21.8945 38.7252 22.0443 38.725H34.0241C34.3301 38.7266 34.6243 38.6069 34.8423 38.3922C35.0603 38.1775 35.1845 37.8852 35.1876 37.5792L35.1699 28.5815Z" fill="#FB6771"/>
<path d="M30.3447 49.3516H25.7545C25.5016 49.3515 25.251 49.4013 25.0173 49.4981C24.7836 49.595 24.5712 49.7368 24.3923 49.9157C24.2134 50.0946 24.0715 50.307 23.9747 50.5407C23.8779 50.7745 23.8281 51.025 23.8281 51.278V51.8558H32.2711V51.278C32.2711 51.025 32.2213 50.7745 32.1245 50.5407C32.0277 50.307 31.8858 50.0946 31.7069 49.9157C31.528 49.7368 31.3157 49.595 31.0819 49.4981C30.8482 49.4013 30.5977 49.3515 30.3447 49.3516Z" fill="#4A5160"/>
<path d="M26.8145 45.0312H29.2862V49.3487H26.8145V45.0312Z" fill="#B6C9E0"/>
<path d="M32.6494 27.601H23.418C23.6526 27.0079 24.0598 26.499 24.5867 26.1397C25.1137 25.7805 25.7363 25.5876 26.374 25.5859H29.6934C30.3311 25.5878 30.9536 25.7808 31.4805 26.1399C32.0075 26.4991 32.4146 27.008 32.6494 27.601Z" fill="#49BDFF"/>
<path d="M28.0337 19C29.6993 19 31.0498 20.447 31.0498 22.1126C31.0498 22.9125 30.7321 23.6797 30.1664 24.2453C29.6008 24.8109 28.8336 25.1287 28.0337 25.1287C27.2338 25.1287 26.4666 24.8109 25.901 24.2453C25.3353 23.6797 25.0176 22.9125 25.0176 22.1126C25.0176 20.447 26.3681 19 28.0337 19Z" fill="#6D7486"/>
<path d="M37.7361 34.4453H35.1797V36.0341H37.7361C37.9468 36.0341 38.1488 35.9504 38.2978 35.8014C38.4468 35.6524 38.5305 35.4504 38.5305 35.2397C38.5305 35.029 38.4468 34.827 38.2978 34.678C38.1488 34.529 37.9468 34.4453 37.7361 34.4453Z" fill="#56568C"/>
<path d="M33.6803 38.7344V40.8419C33.6804 40.9858 33.6521 41.1283 33.597 41.2613C33.542 41.3942 33.4613 41.515 33.3595 41.6168C33.2578 41.7185 33.137 41.7992 33.004 41.8542C32.8711 41.9093 32.7286 41.9376 32.5847 41.9375H29.541V38.7344H33.6803Z" fill="#4A5160"/>
<path d="M26.5254 38.7344H29.5415V41.9375H26.5254V38.7344Z" fill="#B6C9E0"/>
<path d="M26.5253 38.7344V41.9375H23.2069C23.063 41.9376 22.9206 41.9093 22.7876 41.8542C22.6547 41.7992 22.5339 41.7185 22.4321 41.6168C22.3304 41.515 22.2497 41.3942 22.1946 41.2613C22.1396 41.1283 22.1113 40.9858 22.1113 40.8419V38.7344H26.5253Z" fill="#4A5160"/>
<path d="M20.8235 34.4453H18.267C18.0564 34.4453 17.8543 34.529 17.7053 34.678C17.5564 34.827 17.4727 35.029 17.4727 35.2397C17.4727 35.4504 17.5564 35.6524 17.7053 35.8014C17.8543 35.9504 18.0564 36.0341 18.267 36.0341H20.8884V34.4453H20.8235Z" fill="#56568C"/>
<path d="M42.4888 10.8672H38.7945C36.8483 10.8672 35.2852 12.6686 35.2852 14.6147V18.6438H46.0148V14.6147C46.0148 12.6686 44.4349 10.8672 42.4888 10.8672Z" fill="#ADF8D1"/>
<path d="M29.8477 10.8672H26.1523C24.2072 10.8672 22.5859 12.6686 22.5859 14.6147V18.6438H33.4141V14.6147C33.4141 12.6686 31.7928 10.8672 29.8477 10.8672Z" fill="#EADF53"/>
<path d="M17.2067 10.8672H13.5124C11.5662 10.8672 9.98633 12.6686 9.98633 14.6147V18.6438H20.716V14.6147C20.716 12.6686 19.1528 10.8672 17.2067 10.8672Z" fill="#867AF4"/>
<path d="M41.2083 12.5938L41.8393 16.1119L40.6413 16.8305L39.4434 16.1109L40.0773 12.5938H41.2074H41.2083Z" fill="#49BDFF"/>
<path d="M41.6498 10.8828V10.8838L41.2078 12.5956H40.0777H40.0758L39.6348 10.8828H41.6498Z" fill="#3090FC"/>
<path d="M28.5677 12.5938L29.1987 16.1119L28.0007 16.8305L26.8027 16.1109L27.4367 12.5938H28.5667H28.5677Z" fill="#6ADDC7"/>
<path d="M29.0082 10.8828V10.8838L28.5662 12.5956H27.4361H27.4332L26.9922 10.8828H29.0082Z" fill="#61A3BC"/>
<path d="M15.9271 12.5938L16.5581 16.1119L15.3591 16.8305L14.1621 16.1109L14.796 12.5938H15.9261H15.9271Z" fill="#EADF53"/>
<path d="M16.3666 10.8828V10.8838L15.9256 12.5956H14.7955H14.7926L14.3516 10.8828H16.3666Z" fill="#EDB740"/>
<path d="M7.93452 18.6484L3.75781 28.5906H6.71094L10.8876 18.6484H7.93452Z" fill="#A7BAD1"/>
<path d="M23.8398 43.8866V43.0804C23.8407 42.7777 23.9612 42.4876 24.1752 42.2735C24.3891 42.0594 24.679 41.9386 24.9817 41.9375H22.0286C21.7259 41.9386 21.436 42.0594 21.2221 42.2735C21.0081 42.4876 20.8876 42.7777 20.8867 43.0804V43.8866C20.8876 44.1892 21.0081 44.4793 21.2221 44.6934C21.436 44.9075 21.7259 45.0283 22.0286 45.0294H24.9817C24.679 45.0283 24.3891 44.9075 24.1752 44.6934C23.9612 44.4793 23.8407 44.1892 23.8398 43.8866Z" fill="#E75163"/>
<path d="M22.0443 38.725H24.9974C24.8476 38.7252 24.6993 38.6956 24.561 38.6379C24.4228 38.5802 24.2974 38.4956 24.1922 38.3889C24.0871 38.2823 24.0042 38.1557 23.9484 38.0167C23.8926 37.8777 23.865 37.729 23.8673 37.5792L23.8683 28.5815C23.9082 28.3101 24.044 28.062 24.2512 27.8822C24.4583 27.7024 24.7231 27.6028 24.9974 27.6016H22.0443C21.77 27.6028 21.5052 27.7024 21.298 27.8822C21.0909 28.062 20.955 28.3101 20.9152 28.5815L20.9142 37.5792C20.9119 37.729 20.9395 37.8777 20.9952 38.0167C21.051 38.1557 21.1339 38.2823 21.2391 38.3889C21.3443 38.4956 21.4697 38.5802 21.6079 38.6379C21.7461 38.6956 21.8945 38.7252 22.0443 38.725Z" fill="#E75163"/>
<path d="M3.78516 28.5859H6.73828V30.7516H3.78516V28.5859Z" fill="#7F9CB2"/>
<path d="M10.2977 21.7906H9.54961C9.39297 21.7906 9.24274 21.7284 9.13197 21.6176C9.02121 21.5069 8.95898 21.3566 8.95898 21.2C8.95898 21.0434 9.02121 20.8931 9.13197 20.7824C9.24274 20.6716 9.39297 20.6094 9.54961 20.6094H10.2977C10.4544 20.6094 10.6046 20.6716 10.7154 20.7824C10.8261 20.8931 10.8884 21.0434 10.8884 21.2C10.8884 21.3566 10.8261 21.5069 10.7154 21.6176C10.6046 21.7284 10.4544 21.7906 10.2977 21.7906Z" fill="white"/>
<path d="M20.8882 21.7906H12.2742C12.1176 21.7906 11.9673 21.7284 11.8566 21.6176C11.7458 21.5069 11.6836 21.3566 11.6836 21.2C11.6836 21.0434 11.7458 20.8931 11.8566 20.7824C11.9673 20.6716 12.1176 20.6094 12.2742 20.6094H20.8882C21.0448 20.6094 21.1951 20.6716 21.3058 20.7824C21.4166 20.8931 21.4788 21.0434 21.4788 21.2C21.4788 21.3566 21.4166 21.5069 21.3058 21.6176C21.1951 21.7284 21.0448 21.7906 20.8882 21.7906Z" fill="white"/>
</svg>
